HIERARCHY
ROOT Hips
{
	OFFSET 0.000000 0.000000 0.000000 
	CHANNELS 6 Xposition Yposition Zposition Zrotation Yrotation Xrotation
	JOINT LeftUpLeg
	{
		OFFSET 1.363060 -1.794630 0.839290 
		CHANNELS 3 Zrotation Yrotation Xrotation
		JOINT LeftLeg
		{
			OFFSET 2.448110 -6.726130 0.000000 
			CHANNELS 3 Zrotation Yrotation Xrotation
			JOINT LeftFoot
			{
				OFFSET 2.562200 -7.039590 0.000000 
				CHANNELS 3 Zrotation Yrotation Xrotation
				JOINT LeftToeBase
				{
					OFFSET 0.157640 -0.433110 2.322550 
					CHANNELS 3 Zrotation Yrotation Xrotation
					End Site
					{
						OFFSET 0.000000 0.000000 0.000000 
					}
				}
			}
		}
	}
	JOINT RightUpLeg
	{
		OFFSET -1.305520 -1.794630 0.839290 
		CHANNELS 3 Zrotation Yrotation Xrotation
		JOINT RightLeg
		{
			OFFSET -2.542530 -6.985550 0.000000 
			CHANNELS 3 Zrotation Yrotation Xrotation
			JOINT RightFoot
			{
				OFFSET -2.568260 -7.056230 0.000000 
				CHANNELS 3 Zrotation Yrotation Xrotation
				JOINT RightToeBase
				{
					OFFSET -0.164730 -0.452590 2.363150 
					CHANNELS 3 Zrotation Yrotation Xrotation
					End Site
					{
						OFFSET 0.000000 0.000000 0.000000 
					}
				}
			}
		}
	}
	JOINT Spine
	{
		OFFSET 0.028270 2.035590 -0.193380 
		CHANNELS 3 Zrotation Yrotation Xrotation
		JOINT Spine1
		{
			OFFSET 0.056720 2.048850 -0.042750 
			CHANNELS 3 Zrotation Yrotation Xrotation
			JOINT Neck1
			{
				OFFSET -0.054170 1.746240 0.172020 
				CHANNELS 3 Zrotation Yrotation Xrotation
				JOINT Head
				{
					OFFSET 0.104070 1.761360 -0.123970 
					CHANNELS 3 Zrotation Yrotation Xrotation
					End Site
					{
						OFFSET 0.000000 0.000000 0.000000 
					}
				}
			}
			JOINT LeftArm
			{
				OFFSET 3.362410 1.200890 -0.311210 
				CHANNELS 3 Zrotation Yrotation Xrotation
				JOINT LeftForeArm
				{
					OFFSET 4.983000 -0.000000 -0.000000 
					CHANNELS 3 Zrotation Yrotation Xrotation
					JOINT LeftHand
					{
						OFFSET 3.483560 -0.000000 -0.000000 
						CHANNELS 3 Zrotation Yrotation Xrotation
						JOINT LeftHandIndex1
						{
							OFFSET 0.715260 -0.000000 -0.000000 
							CHANNELS 3 Zrotation Yrotation Xrotation
							End Site
							{
								OFFSET 0.000000 0.000000 0.000000 
							}
						}
					}
				}
			}
			JOINT RightArm
			{
				OFFSET -3.136600 1.374050 -0.404650 
				CHANNELS 3 Zrotation Yrotation Xrotation
				JOINT RightForeArm
				{
					OFFSET -5.241900 -0.000000 -0.000000 
					CHANNELS 3 Zrotation Yrotation Xrotation
					JOINT RightHand
					{
						OFFSET -3.444170 -0.000000 -0.000000 
						CHANNELS 3 Zrotation Yrotation Xrotation
						JOINT RightHandIndex1
						{
							OFFSET -0.622530 -0.000000 -0.000000 
							CHANNELS 3 Zrotation Yrotation Xrotation
							End Site
							{
								OFFSET 0.000000 0.000000 0.000000 
							}
						}
					}
				}
			}
		}
	}
}
MOTION
Frames: 9
Frame Time: 0.041667
-1.102323 18.135285 5.959598 -2.179736 -4.800313 -2.256734 -11.035791 -10.413451 16.556726 -2.164202 -4.194341 -9.131282 -6.394724 22.957625 -2.503866 0.076300 -1.782500 -4.904900 16.161537 0.338451 10.949960 1.475822 2.842732 -4.291545 2.208455 -10.364942 -7.692070 -0.109000 -2.128700 5.861500 -0.085228 2.135727 15.005283 -2.368427 1.587828 -9.953851 2.158058 -1.817563 19.324416 0.027100 -0.590500 7.969700 -91.038288 8.393786 22.042051 24.505354 -33.840639 -7.380668 0.570293 0.714195 -0.524367 -7.125000 0.000000 0.000000 96.083005 -13.698553 12.248327 -34.674631 41.874283 -11.438866 1.442659 -2.170583 8.653689 7.125000 0.000000 0.000000 
-1.103931 18.135386 5.951862 -2.125181 -4.770839 -2.279255 -11.059022 -10.307842 16.494684 -2.161437 -4.197521 -9.130687 -6.368887 22.888717 -2.370995 0.079400 -1.817300 -5.000900 16.109365 0.315200 10.931216 1.474906 2.844512 -4.297359 2.213487 -10.378507 -7.660955 -0.103600 -2.075800 5.715300 -0.095700 2.143282 15.064249 -2.325701 1.598231 -9.978453 2.176464 -1.906757 19.470980 0.033300 -0.633300 8.023000 -91.444692 8.979240 22.190038 25.980338 -35.293356 -8.131677 0.554111 0.718825 -0.349767 -7.125000 0.000000 0.000000 96.108815 -13.630621 12.660994 -34.768398 41.958351 -11.471193 1.447165 -2.165851 8.525721 7.125000 0.000000 0.000000 
-1.105940 18.136792 5.944126 -2.194845 -4.749424 -2.287446 -10.941505 -10.099024 16.407008 -2.149966 -4.218123 -9.177300 -6.323136 22.773296 -2.101448 0.088800 -1.922100 -5.290500 16.191286 0.310234 10.848358 1.477109 2.794467 -4.163961 2.207076 -10.352361 -7.664844 -0.095500 -1.992600 5.485200 0.004959 2.156588 15.103351 -2.361653 1.606264 -10.002011 2.220546 -1.926753 19.444737 0.047600 -0.641600 8.016300 -91.327128 8.457202 23.236954 25.062243 -34.420301 -7.664508 0.573846 0.719039 -0.948452 -7.125000 0.000000 0.000000 96.173084 -13.534943 12.976561 -34.758559 41.968346 -11.448564 1.488102 -2.149862 8.571498 7.125000 0.000000 0.000000 
-1.108050 18.137696 5.936189 -2.279708 -4.705855 -2.300465 -10.824880 -10.040401 16.359714 -2.143590 -4.223179 -9.197219 -6.302775 22.724667 -1.950966 0.098500 -2.023500 -5.570700 16.289558 0.265495 10.809924 1.478389 2.772634 -4.100114 2.206458 -10.349853 -7.671006 -0.096500 -2.002900 5.513700 0.044229 2.164295 15.117149 -2.409934 1.604799 -10.032963 2.220819 -1.957154 19.412423 0.040100 -0.655000 8.002400 -91.434494 8.438403 23.753848 25.149305 -34.518479 -7.706478 0.573616 0.721461 -1.034398 -7.125000 0.000000 0.000000 96.287002 -13.434301 13.235254 -34.661256 41.916232 -11.369937 1.566526 -2.117579 8.677209 7.125000 0.000000 0.000000 
-1.109557 18.138601 5.929558 -2.274107 -4.636363 -2.298469 -10.798031 -10.017220 16.321407 -2.139407 -4.235285 -9.232661 -6.285076 22.684440 -1.842467 0.103200 -2.071200 -5.702300 16.294370 0.216322 10.728061 1.478558 2.739398 -4.010511 2.196098 -10.310593 -7.687728 -0.100900 -2.048400 5.639600 -0.016833 2.165987 15.095901 -2.399360 1.604214 -10.048775 2.266250 -2.013819 19.364843 0.045800 -0.678800 7.979200 -91.575393 8.418222 24.146583 25.116067 -34.496514 -7.685384 0.574284 0.721557 -0.952492 -7.125000 0.000000 0.000000 96.391949 -13.378603 13.560643 -34.478607 41.793820 -11.250277 1.590982 -2.112151 8.705049 7.125000 0.000000 0.000000 
-1.111064 18.139103 5.923631 -2.258408 -4.566117 -2.309030 -10.774754 -9.908444 16.251630 -2.133828 -4.240746 -9.241137 -6.245263 22.575951 -1.675650 0.100200 -2.041200 -5.619400 16.285245 0.155096 10.683824 1.477892 2.724296 -3.969650 2.195329 -10.305312 -7.678685 -0.098100 -2.019600 5.559700 -0.025692 2.148373 15.076371 -2.375061 1.598838 -10.072639 2.337866 -2.075525 19.334025 0.066300 -0.705900 7.961500 -91.798876 8.410848 24.273561 25.002526 -34.394033 -7.620046 0.581109 0.710166 -0.623778 -7.125000 0.000000 0.000000 96.440530 -13.369858 13.981851 -34.243189 41.629669 -11.118989 1.565645 -2.133683 8.687227 7.125000 0.000000 0.000000 
-1.113073 18.139103 5.916096 -2.283967 -4.484107 -2.324199 -10.706198 -9.797684 16.161105 -2.127754 -4.233421 -9.220247 -6.197213 22.438502 -1.496614 0.104400 -2.083200 -5.735700 16.317371 0.060711 10.689357 1.476746 2.735881 -3.994312 2.202863 -10.332762 -7.665852 -0.093000 -1.967100 5.414600 -0.038025 2.127956 15.023455 -2.375192 1.586514 -10.128106 2.283094 -2.091470 19.326629 0.047800 -0.718000 7.949200 -91.976169 8.423044 24.411640 24.831688 -34.232112 -7.523492 0.586928 0.698044 -0.338849 -7.125000 0.000000 0.000000 96.505594 -13.367263 14.384435 -33.969051 41.439659 -10.972891 1.543776 -2.155033 8.659576 7.125000 0.000000 0.000000 
-1.114480 18.139907 5.909565 -2.256489 -4.390960 -2.316841 -10.692641 -9.742687 16.073300 -2.124385 -4.228896 -9.208762 -6.161693 22.339089 -1.355896 0.114200 -2.178300 -5.998800 16.295840 -0.029920 10.662036 1.475349 2.745497 -4.014539 2.204985 -10.340741 -7.671482 -0.090000 -1.934400 5.324400 -0.152090 2.124245 15.012460 -2.350537 1.582416 -10.150586 2.131717 -2.084015 19.238282 -0.001100 -0.726800 7.915000 -92.061186 8.353972 24.699005 24.541410 -33.947835 -7.367022 0.591848 0.689219 -0.090901 -7.125000 0.000000 0.000000 96.588270 -13.322053 14.698882 -33.668430 41.219892 -10.800073 1.526345 -2.172964 8.773896 7.125000 0.000000 0.000000 
-1.115283 18.141012 5.906149 -2.203401 -4.323889 -2.305772 -10.714014 -9.701407 16.007900 -2.122817 -4.230491 -9.210117 -6.140503 22.284712 -1.241282 0.113100 -2.168100 -5.970600 16.246414 -0.082961 10.615273 1.474436 2.744770 -4.010981 2.205823 -10.340351 -7.661275 -0.086800 -1.900700 5.231400 -0.241358 2.118772 15.080375 -2.311599 1.583091 -10.125199 2.061549 -2.098498 19.137590 -0.022600 -0.742600 7.883000 -92.151599 8.224158 24.929355 24.136954 -33.547762 -7.158024 0.600020 0.678692 0.287364 -7.125000 0.000000 0.000000 96.644022 -13.256846 14.938123 -33.352230 40.976797 -10.612451 1.516937 -2.186447 9.245468 7.125000 0.000000 0.000000 
